<?xml version="1.0" ?><!DOCTYPE svg  PUBLIC '-//W3C//DTD SVG 1.1//EN'  'http://www.w3.org/Graphics/SVG/1.1/DTD/svg11.dtd'><svg enable-background="new 0 0 100 100" height="100px" id="Layer_1" version="1.1" viewBox="0 0 100 100" width="100px" xml:space="preserve" xmlns="http://www.w3.org/2000/svg" xmlns:xlink="http://www.w3.org/1999/xlink"><path d="M72.883,29.91H60.768c-0.553,0-1-0.448-1-1s0.447-1,1-1h12.115c0.553,0,1,0.448,1,1S73.436,29.91,72.883,29.91z"/><path d="M68.844,36.642h-8.076c-0.553,0-1-0.448-1-1c0-0.553,0.447-1,1-1h8.076c0.553,0,1,0.447,1,1  C69.844,36.193,69.396,36.642,68.844,36.642z"/><path d="M68.844,53.244h-8.076c-0.553,0-1-0.447-1-1c0-0.552,0.447-1,1-1h8.076c0.553,0,1,0.448,1,1  C69.844,52.797,69.396,53.244,68.844,53.244z"/><path d="M72.883,46.513H60.768c-0.553,0-1-0.447-1-1c0-0.552,0.447-1,1-1h12.115c0.553,0,1,0.448,1,1  C73.883,46.065,73.436,46.513,72.883,46.513z"/><path d="M51.26,34.622c-0.252,0-0.502-0.094-0.697-0.282l-1.259-1.223c-0.396-0.384-0.406-1.018-0.021-1.414  c0.385-0.396,1.018-0.406,1.415-0.021l0.563,0.547l2.08-2.019c0.396-0.384,1.029-0.375,1.414,0.021  c0.385,0.396,0.375,1.029-0.021,1.414l-2.773,2.692C51.762,34.527,51.51,34.622,51.26,34.622z"/><path d="M64.619,85.327L64.619,85.327c-0.131,0-0.26-0.006-0.383-0.018l-7.93,0.004c-1.02,0-2.006-0.245-3.014-0.749  c-0.936-0.43-1.996-1.216-2.508-1.73l-10.802-9.469c-1.357-1.263-1.561-2.479-1.494-3.277c0.111-0.69,0.463-1.289,0.76-1.608  c0.322-0.39,0.873-0.826,1.377-0.986c1.324-0.545,3.459-0.28,4.691,0.568l3.633,2.405V50.369c0-0.892,0.355-1.738,1.004-2.38  c0.661-0.664,1.645-1.07,2.428-0.999c0.867,0.015,1.689,0.369,2.322,1.002c0.643,0.642,0.998,1.487,0.998,2.377v7.844  c0.563-0.375,1.313-0.683,2.01-0.615c0.813,0.016,1.615,0.328,2.264,0.889c0.387,0.382,0.666,0.809,0.84,1.27  c0.605-0.53,1.5-0.873,2.229-0.807c0.867,0.016,1.688,0.369,2.318,1.001c0.449,0.388,0.807,1.041,0.943,1.688  c0.656-0.471,1.447-0.696,2.006-0.696c0.955,0,1.863,0.396,2.43,1.056c0.504,0.5,1.025,1.524,0.947,2.379v13.51  c0,2.01-0.768,3.881-2.158,5.271C68.277,84.414,66.209,85.327,64.619,85.327z M42.297,69.193c-0.367,0-0.697,0.057-0.932,0.159  c-0.053,0.022-0.105,0.042-0.162,0.055c-0.045,0.022-0.289,0.193-0.42,0.358c-0.023,0.029-0.049,0.058-0.076,0.084  c-0.068,0.076-0.209,0.332-0.232,0.486c-0.033,0.438,0.25,0.986,0.852,1.547l10.825,9.496c0.439,0.436,1.316,1.065,2.008,1.385  c0.764,0.381,1.438,0.552,2.146,0.552h8.025c0.156,0.01,0.221,0.013,0.285,0.013c1.074,0,2.611-0.695,3.498-1.585  c1.016-1.013,1.572-2.382,1.572-3.856V64.32c0-0.047,0.004-0.093,0.01-0.141c0-0.125-0.162-0.564-0.424-0.826  c-0.236-0.271-0.594-0.412-0.963-0.412c-0.191,0-0.705,0.157-0.961,0.413c-0.195,0.231-0.354,0.583-0.412,0.767v1.937  c0,0.728-0.563,1.319-1.258,1.319c-0.74,0-1.32-0.58-1.32-1.319v-3.729c0-0.04,0.002-0.08,0.006-0.119  c0.021-0.164-0.15-0.608-0.365-0.796c-0.324-0.319-0.656-0.464-1.016-0.464c-0.041,0-0.082-0.002-0.125-0.008l0,0  c-0.184,0-0.563,0.146-0.834,0.419c-0.275,0.242-0.418,0.603-0.418,0.968v3.215c0,0.682-0.574,1.258-1.254,1.258  c-0.729,0-1.322-0.564-1.322-1.258v-4.564c0-0.412-0.135-0.747-0.414-1.024c-0.16-0.136-0.51-0.354-0.963-0.354  c-0.041,0-0.082-0.003-0.121-0.007c-0.002,0-0.002,0-0.002,0c-0.209,0-0.607,0.164-0.893,0.408c-0.229,0.23-0.352,0.543-0.363,0.625  l0.002,3.889c0,0.742-0.578,1.322-1.316,1.322c-0.693,0-1.258-0.594-1.258-1.322V50.369c0-0.361-0.143-0.694-0.412-0.963  c-0.275-0.277-0.602-0.417-0.965-0.417c-0.041,0-0.082-0.002-0.123-0.007l0,0c-0.178,0-0.564,0.149-0.836,0.423  c-0.273,0.271-0.416,0.604-0.416,0.964v21.409c0,0.742-0.58,1.323-1.32,1.323c-0.33,0-0.582-0.148-0.732-0.268l-4.699-3.115  C43.73,69.396,42.991,69.193,42.297,69.193z"/><path d="M52.084,37.987c-3.186,0-5.776-2.593-5.776-5.781c0-3.111,2.592-5.642,5.776-5.642c3.061,0,5.646,2.583,5.646,5.642  C57.729,35.395,55.197,37.987,52.084,37.987z M52.084,28.565c-2.082,0-3.776,1.634-3.776,3.642c0,2.12,1.66,3.781,3.776,3.781  c2.01,0,3.646-1.696,3.646-3.781C55.729,30.232,54.059,28.565,52.084,28.565z"/><path d="M47.681,51.68c-0.393,0-0.764-0.231-0.924-0.614c-0.299-0.714-0.449-1.474-0.449-2.257c0-3.111,2.592-5.643,5.776-5.643  c3.061,0,5.645,2.583,5.645,5.643c0,0.777-0.146,1.534-0.443,2.249c-0.213,0.511-0.795,0.751-1.311,0.541  c-0.51-0.212-0.752-0.798-0.539-1.308c0.195-0.47,0.293-0.968,0.293-1.481c0-1.975-1.67-3.643-3.645-3.643  c-2.083,0-3.776,1.634-3.776,3.643c0,0.517,0.1,1.016,0.295,1.482c0.213,0.511-0.025,1.097-0.535,1.31  C47.939,51.653,47.81,51.68,47.681,51.68z"/><path d="M31.181,58.404c-0.098,0-0.193-0.014-0.289-0.043c-1.59-0.482-3.02-1.482-4.021-2.818c-0.264-0.351-0.268-0.83-0.012-1.186  l0.754-1.048c-0.189-0.423-0.328-0.863-0.416-1.318l-1.24-0.45c-0.406-0.146-0.672-0.541-0.658-0.974  c0.059-1.692,0.641-3.288,1.688-4.615c0.268-0.339,0.725-0.468,1.127-0.32l1.238,0.45c0.217-0.175,0.443-0.335,0.682-0.479v-1.319  c0-0.432,0.277-0.815,0.688-0.95c1.584-0.52,3.32-0.52,4.91,0c0.412,0.134,0.689,0.519,0.689,0.951l-0.002,1.318  c0.238,0.144,0.467,0.303,0.684,0.479l1.236-0.45c0.404-0.148,0.859-0.019,1.127,0.32c1.049,1.329,1.631,2.925,1.684,4.617  c0.016,0.433-0.25,0.824-0.656,0.972l-1.236,0.45c-0.088,0.447-0.225,0.882-0.41,1.3l0.754,1.078c0.248,0.354,0.24,0.828-0.02,1.174  c-1.002,1.336-2.432,2.336-4.021,2.819c-0.412,0.123-0.859-0.028-1.107-0.384l-0.756-1.08c-0.279,0.018-0.561,0.02-0.836,0  l-0.756,1.081C31.81,58.25,31.5,58.404,31.181,58.404z M28.938,54.892c0.531,0.551,1.17,0.997,1.865,1.308l0.658-0.939  c0.225-0.317,0.611-0.479,0.994-0.409c0.465,0.082,0.963,0.083,1.438,0c0.385-0.069,0.77,0.092,0.992,0.411l0.656,0.938  c0.701-0.312,1.342-0.761,1.875-1.313l-0.658-0.939c-0.223-0.318-0.24-0.738-0.045-1.074c0.305-0.524,0.484-1.099,0.537-1.701  c0.033-0.387,0.289-0.72,0.654-0.853l1.078-0.394c-0.117-0.764-0.383-1.49-0.785-2.149l-1.078,0.393  c-0.365,0.134-0.771,0.043-1.049-0.231c-0.346-0.346-0.742-0.623-1.178-0.825c-0.354-0.164-0.578-0.519-0.578-0.907l0.002-1.146  c-0.754-0.149-1.539-0.148-2.287-0.001v1.147c0,0.389-0.227,0.742-0.578,0.906c-0.434,0.203-0.832,0.48-1.18,0.827  c-0.273,0.273-0.686,0.363-1.047,0.229l-1.078-0.392c-0.402,0.659-0.668,1.386-0.785,2.149l1.08,0.393  c0.367,0.133,0.623,0.467,0.654,0.856c0.053,0.609,0.234,1.188,0.547,1.715c0.199,0.343,0.182,0.771-0.051,1.093L28.938,54.892z"/><path d="M33.17,53.821c-1.652,0-3-1.346-3-3c0-1.655,1.348-3.001,3-3.001c1.654,0,3,1.347,3,3.001S34.827,53.821,33.17,53.821z   M33.17,49.819c-0.551,0-1,0.449-1,1.001c0,0.553,0.449,1,1,1c0.553,0,1-0.449,1-1C34.17,50.269,33.724,49.819,33.17,49.819z"/><path d="M39.902,42.215c-0.553,0-1-0.447-1-1v-1.854h-5.426c-0.451,0-0.85-0.304-0.965-0.741l-2.811-10.488  c-0.1-0.369-0.289-0.646-0.547-0.803c-0.246-0.149-0.549-0.18-0.875-0.093c-0.326,0.087-0.572,0.266-0.711,0.517  c-0.146,0.267-0.17,0.602-0.07,0.971l2.514,9.38c0.08,0.3,0.018,0.621-0.174,0.867c-0.188,0.247-0.48,0.392-0.793,0.392H27.44v1.854  c0,0.553-0.447,1-1,1c-0.553,0-1-0.447-1-1v-2.854c0-0.552,0.447-1,1-1h1.301l-2.176-8.121c-0.232-0.864-0.145-1.734,0.25-2.45  c0.4-0.729,1.092-1.258,1.945-1.486c0.854-0.229,1.717-0.117,2.43,0.314c0.699,0.423,1.211,1.132,1.441,1.997l2.611,9.747H39.9  c0.553,0,1,0.448,1,1v2.854C40.902,41.769,40.456,42.215,39.902,42.215z"/><path d="M34.583,29.18h-3.859c-0.555,0-1-0.447-1-1c0-0.552,0.445-1,1-1h3.859c0.555,0,1,0.448,1,1  C35.583,28.732,35.136,29.18,34.583,29.18z"/><path d="M37.273,31.873c-2.311,0-3.691-1.817-3.691-3.573c0-2.208,1.553-3.812,3.691-3.812c1.387,0,2.59,0.696,3.219,1.862  c0.264,0.485,0.082,1.093-0.404,1.354c-0.482,0.263-1.094,0.081-1.354-0.405c-0.283-0.523-0.801-0.812-1.461-0.812  c-1.027,0-1.689,0.711-1.689,1.812c0,0.653,0.523,1.573,1.689,1.573c0.92,0,1.334-0.511,1.5-0.814  c0.262-0.486,0.871-0.666,1.354-0.403c0.486,0.263,0.666,0.87,0.402,1.354C39.898,31.176,38.683,31.873,37.273,31.873z"/><path d="M17.691,42.923c-0.553,0-1-0.447-1-1v-4.038c0-0.552,0.447-1,1-1c0.553,0,1,0.448,1,1v4.038  C18.691,42.476,18.245,42.923,17.691,42.923z"/><path d="M80.152,65.135h-5.936c-0.553,0-1-0.447-1-1c0-0.551,0.447-1,1-1h5.936c2.121,0,3.848-1.727,3.848-3.848V20.521  c0-2.121-1.727-3.848-3.848-3.848H19.845c-2.119,0-3.846,1.727-3.846,3.848v38.768c0,2.121,1.727,3.847,3.846,3.847h26.115  c0.555,0,1,0.449,1,1c0,0.554-0.445,1-1,1H19.845c-3.225,0-5.846-2.623-5.846-5.847V20.521c0-3.225,2.621-5.848,5.846-5.848h60.308  c3.227,0,5.85,2.623,5.85,5.848v38.768C86,62.512,83.377,65.135,80.152,65.135z"/></svg>