<?xml version="1.0" ?><!DOCTYPE svg  PUBLIC '-//W3C//DTD SVG 1.1//EN'  'http://www.w3.org/Graphics/SVG/1.1/DTD/svg11.dtd'><svg xmlns="http://www.w3.org/2000/svg" xmlns:xlink="http://www.w3.org/1999/xlink" xmlns:serif="http://www.serif.com/" width="100%" height="100%" viewBox="0 0 64 64" version="1.1" xml:space="preserve" style="fill-rule:evenodd;clip-rule:evenodd;stroke-linejoin:round;stroke-miterlimit:2;"><g><path d="M42.483,37.082L46.599,41.193C47.043,41.638 47.671,41.847 48.293,41.759C50.681,41.42 53.196,42.167 55.031,44.001C55.884,44.853 56.502,45.851 56.885,46.916C56.885,46.915 53.785,44.748 53.785,44.748C52.991,44.193 51.912,44.288 51.226,44.973L44.78,51.413C44.093,52.099 43.998,53.18 44.555,53.975L46.721,57.067C45.656,56.685 44.655,56.067 43.802,55.215C41.967,53.381 41.22,50.871 41.558,48.486C41.647,47.863 41.437,47.234 40.992,46.79L33.24,39.045C32.459,38.265 31.192,38.266 30.412,39.047C29.632,39.827 29.632,41.095 30.413,41.875L37.497,48.953C37.318,52.22 38.477,55.549 40.975,58.044C43.734,60.801 47.512,61.926 51.102,61.417C51.79,61.32 52.379,60.872 52.656,60.234C52.933,59.596 52.858,58.86 52.46,58.29L48.795,53.056L52.868,48.987L58.109,52.65C58.679,53.049 59.415,53.122 60.052,52.845C60.69,52.568 61.138,51.98 61.235,51.292C61.745,47.705 60.619,43.929 57.859,41.171C55.361,38.676 52.03,37.518 48.759,37.697C48.759,37.698 45.31,34.252 45.31,34.252C44.53,33.472 43.262,33.473 42.482,34.253C41.702,35.034 41.702,36.302 42.483,37.082Z"/><path d="M24.574,30.387L6.533,12.362C4.962,10.793 4.962,8.248 6.533,6.679L6.534,6.678C7.266,5.947 8.258,5.536 9.292,5.536C10.327,5.536 11.319,5.947 12.051,6.678L26.196,20.81C26.977,21.59 28.244,21.589 29.025,20.808C29.805,20.028 29.804,18.76 29.023,17.98L14.878,3.848C13.397,2.368 11.387,1.536 9.292,1.536C7.197,1.536 5.188,2.368 3.707,3.848L3.705,3.849C0.57,6.981 0.57,12.06 3.705,15.192L21.746,33.216C22.527,33.997 23.795,33.996 24.575,33.215C25.355,32.434 25.354,31.167 24.574,30.387Z"/><path d="M28.997,31.454L11.52,48.915C9.565,48.001 7.165,48.35 5.551,49.963C3.923,51.589 2.035,53.475 2.035,53.475C1.66,53.851 1.449,54.36 1.449,54.89C1.449,55.421 1.66,55.93 2.035,56.305L6.674,60.94C7.455,61.72 8.72,61.72 9.501,60.94C9.501,60.94 11.389,59.054 13.017,57.427C14.524,55.922 14.929,53.732 14.233,51.858L31.827,34.281L34.63,37.082C35.411,37.862 36.676,37.862 37.457,37.082C37.457,37.082 51.663,22.889 58.959,15.6C62.07,12.491 62.07,7.452 58.959,4.344C58.959,4.343 58.958,4.343 58.958,4.342C57.465,2.851 55.44,2.013 53.329,2.013C51.217,2.013 49.193,2.851 47.7,4.342C40.404,11.631 26.196,25.826 26.196,25.826C25.821,26.201 25.61,26.71 25.61,27.241C25.61,27.772 25.821,28.281 26.196,28.656L28.997,31.454Z"/></g></svg>